<svg xmlns="http://www.w3.org/2000/svg" xmlns:xlink="http://www.w3.org/1999/xlink" width="243" zoomAndPan="magnify" viewBox="0 0 182.25 62.249996" height="83" preserveAspectRatio="xMidYMid meet" version="1.0"><defs><g/><clipPath id="f381e612e5"><path d="M 90.132812 9.023438 L 176 9.023438 L 176 52.277344 L 90.132812 52.277344 Z M 90.132812 9.023438 " clip-rule="nonzero"/></clipPath><clipPath id="5fd8d913db"><path d="M 122.070312 9.023438 L 169.988281 9.023438 C 172.113281 9.023438 174.074219 10.164062 175.125 12.011719 C 176.179688 13.855469 176.160156 16.125 175.078125 17.953125 L 160.035156 43.347656 C 156.761719 48.882812 150.804688 52.277344 144.375 52.277344 L 96.457031 52.277344 C 94.332031 52.277344 92.371094 51.136719 91.320312 49.292969 C 90.269531 47.445312 90.285156 45.175781 91.371094 43.347656 L 106.410156 17.953125 C 109.6875 12.417969 115.640625 9.023438 122.070312 9.023438 Z M 122.070312 9.023438 " clip-rule="nonzero"/></clipPath></defs><g clip-path="url(#f381e612e5)"><g clip-path="url(#5fd8d913db)"><path fill="#894df8" d="M 86.082031 9.023438 L 180.363281 9.023438 L 180.363281 52.277344 L 86.082031 52.277344 Z M 86.082031 9.023438 " fill-opacity="1" fill-rule="nonzero"/></g></g><g fill="#ffffff" fill-opacity="1"><g transform="translate(9.771261, 44.996789)"><g><path d="M 22.03125 -20.28125 L 14.34375 -20.28125 L 14.34375 0 L 7.859375 0 L 7.859375 -20.28125 L 0.25 -20.28125 L 0.25 -25.53125 L 22.03125 -25.53125 Z M 22.03125 -20.28125 "/></g></g></g><g fill="#ffffff" fill-opacity="1"><g transform="translate(29.949535, 44.996789)"><g><path d="M 3.296875 -27.65625 C 3.910156 -28.28125 4.703125 -28.59375 5.671875 -28.59375 C 6.648438 -28.59375 7.445312 -28.28125 8.0625 -27.65625 C 8.6875 -27.039062 9 -26.242188 9 -25.265625 C 9 -24.296875 8.6875 -23.492188 8.0625 -22.859375 C 7.445312 -22.234375 6.648438 -21.921875 5.671875 -21.921875 C 4.703125 -21.921875 3.910156 -22.234375 3.296875 -22.859375 C 2.679688 -23.492188 2.375 -24.296875 2.375 -25.265625 C 2.375 -26.242188 2.679688 -27.039062 3.296875 -27.65625 Z M 8.78125 0 L 2.515625 0 L 2.515625 -19.625 L 8.78125 -19.625 Z M 8.78125 0 "/></g></g></g><g fill="#ffffff" fill-opacity="1"><g transform="translate(39.200834, 44.996789)"><g><path d="M 13.953125 -5.421875 L 15.1875 -1.0625 C 13.65625 -0.15625 11.90625 0.296875 9.9375 0.296875 C 8 0.296875 6.425781 -0.242188 5.21875 -1.328125 C 4.019531 -2.410156 3.421875 -3.945312 3.421875 -5.9375 L 3.421875 -14.609375 L 0.6875 -14.609375 L 0.6875 -18.71875 L 3.421875 -18.71875 L 3.421875 -24.1875 L 9.6875 -24.1875 L 9.6875 -18.75 L 14.828125 -18.75 L 14.828125 -14.609375 L 9.6875 -14.609375 L 9.6875 -6.921875 C 9.6875 -6.171875 9.835938 -5.617188 10.140625 -5.265625 C 10.441406 -4.910156 10.898438 -4.742188 11.515625 -4.765625 C 12.097656 -4.765625 12.910156 -4.984375 13.953125 -5.421875 Z M 13.953125 -5.421875 "/></g></g></g><g fill="#ffffff" fill-opacity="1"><g transform="translate(52.968614, 44.996789)"><g><path d="M 21.640625 -19.625 L 21.640625 0 L 15.328125 0 L 15.328125 -3.234375 C 13.992188 -0.910156 11.867188 0.25 8.953125 0.25 C 6.816406 0.25 5.113281 -0.425781 3.84375 -1.78125 C 2.570312 -3.144531 1.9375 -4.96875 1.9375 -7.25 L 1.9375 -19.625 L 8.234375 -19.625 L 8.234375 -9.03125 C 8.234375 -7.863281 8.53125 -6.945312 9.125 -6.28125 C 9.71875 -5.613281 10.515625 -5.28125 11.515625 -5.28125 C 12.703125 -5.300781 13.632812 -5.742188 14.3125 -6.609375 C 14.988281 -7.472656 15.328125 -8.582031 15.328125 -9.9375 L 15.328125 -19.625 Z M 21.640625 -19.625 "/></g></g></g><g fill="#ffffff" fill-opacity="1"><g transform="translate(75.040898, 44.996789)"><g><path d="M 9.546875 -19.921875 C 12.429688 -19.921875 15.125 -19.179688 17.625 -17.703125 L 15.484375 -13.625 C 13.054688 -14.9375 10.988281 -15.59375 9.28125 -15.59375 C 8 -15.59375 7.359375 -15.140625 7.359375 -14.234375 C 7.359375 -13.753906 7.707031 -13.347656 8.40625 -13.015625 C 9.113281 -12.691406 9.976562 -12.394531 11 -12.125 C 12.019531 -11.863281 13.03125 -11.53125 14.03125 -11.125 C 15.039062 -10.726562 15.898438 -10.09375 16.609375 -9.21875 C 17.316406 -8.34375 17.671875 -7.273438 17.671875 -6.015625 C 17.671875 -4.046875 16.90625 -2.507812 15.375 -1.40625 C 13.84375 -0.300781 11.847656 0.25 9.390625 0.25 C 5.921875 0.25 2.984375 -0.671875 0.578125 -2.515625 L 2.59375 -6.515625 C 4.894531 -4.890625 7.210938 -4.078125 9.546875 -4.078125 C 10.972656 -4.078125 11.6875 -4.523438 11.6875 -5.421875 C 11.6875 -5.929688 11.335938 -6.359375 10.640625 -6.703125 C 9.953125 -7.046875 9.109375 -7.347656 8.109375 -7.609375 C 7.117188 -7.878906 6.125 -8.210938 5.125 -8.609375 C 4.132812 -9.015625 3.289062 -9.640625 2.59375 -10.484375 C 1.90625 -11.335938 1.5625 -12.40625 1.5625 -13.6875 C 1.5625 -15.65625 2.300781 -17.1875 3.78125 -18.28125 C 5.269531 -19.375 7.191406 -19.921875 9.546875 -19.921875 Z M 9.546875 -19.921875 "/></g></g></g><g fill="#ffffff" fill-opacity="1"><g transform="translate(94.507618, 44.990969)"><g><path d="M 2.21875 -4.953125 C 2.78125 -5.515625 3.507812 -5.796875 4.40625 -5.796875 C 5.300781 -5.796875 6.035156 -5.515625 6.609375 -4.953125 C 7.179688 -4.390625 7.46875 -3.660156 7.46875 -2.765625 C 7.46875 -1.867188 7.179688 -1.132812 6.609375 -0.5625 C 6.035156 0.0078125 5.300781 0.296875 4.40625 0.296875 C 3.507812 0.296875 2.78125 0.0078125 2.21875 -0.5625 C 1.664062 -1.132812 1.390625 -1.867188 1.390625 -2.765625 C 1.390625 -3.660156 1.664062 -4.390625 2.21875 -4.953125 Z M 2.21875 -4.953125 "/></g></g></g><g fill="#ffffff" fill-opacity="1"><g transform="translate(101.282134, 44.990969)"><g><path d="M 28.734375 -19.921875 C 30.898438 -19.921875 32.617188 -19.234375 33.890625 -17.859375 C 35.160156 -16.492188 35.796875 -14.671875 35.796875 -12.390625 L 35.796875 0 L 29.53125 0 L 29.53125 -10.640625 C 29.53125 -11.804688 29.226562 -12.722656 28.625 -13.390625 C 28.019531 -14.054688 27.195312 -14.390625 26.15625 -14.390625 C 24.988281 -14.359375 24.054688 -13.910156 23.359375 -13.046875 C 22.671875 -12.191406 22.328125 -11.082031 22.328125 -9.71875 L 22.328125 0 L 16.03125 0 L 16.03125 -10.640625 C 16.03125 -11.804688 15.726562 -12.722656 15.125 -13.390625 C 14.53125 -14.054688 13.710938 -14.390625 12.671875 -14.390625 C 11.484375 -14.359375 10.535156 -13.90625 9.828125 -13.03125 C 9.128906 -12.164062 8.78125 -11.0625 8.78125 -9.71875 L 8.78125 0 L 2.515625 0 L 2.515625 -19.625 L 8.78125 -19.625 L 8.78125 -16.390625 C 10.113281 -18.691406 12.273438 -19.867188 15.265625 -19.921875 C 16.835938 -19.921875 18.203125 -19.523438 19.359375 -18.734375 C 20.515625 -17.953125 21.332031 -16.867188 21.8125 -15.484375 C 23.101562 -18.390625 25.410156 -19.867188 28.734375 -19.921875 Z M 28.734375 -19.921875 "/></g></g></g><g fill="#ffffff" fill-opacity="1"><g transform="translate(136.976709, 44.990969)"><g><path d="M 11.109375 -19.84375 C 14.503906 -19.84375 17.054688 -18.796875 18.765625 -16.703125 C 20.484375 -14.617188 21.234375 -11.757812 21.015625 -8.125 L 7.21875 -8.125 C 7.53125 -6.957031 8.085938 -6.054688 8.890625 -5.421875 C 9.691406 -4.796875 10.675781 -4.484375 11.84375 -4.484375 C 13.632812 -4.484375 15.195312 -5.148438 16.53125 -6.484375 L 19.84375 -3.234375 C 17.738281 -0.929688 14.890625 0.21875 11.296875 0.21875 C 8.109375 0.21875 5.570312 -0.691406 3.6875 -2.515625 C 1.8125 -4.335938 0.875 -6.753906 0.875 -9.765625 C 0.875 -12.796875 1.8125 -15.234375 3.6875 -17.078125 C 5.570312 -18.921875 8.046875 -19.84375 11.109375 -19.84375 Z M 7.109375 -11.515625 L 14.96875 -11.515625 C 14.96875 -12.703125 14.617188 -13.660156 13.921875 -14.390625 C 13.234375 -15.117188 12.320312 -15.484375 11.1875 -15.484375 C 10.113281 -15.484375 9.210938 -15.125 8.484375 -14.40625 C 7.753906 -13.6875 7.296875 -12.722656 7.109375 -11.515625 Z M 7.109375 -11.515625 "/></g></g></g></svg>