<svg xmlns="http://www.w3.org/2000/svg" xmlns:xlink="http://www.w3.org/1999/xlink" width="325" zoomAndPan="magnify" viewBox="0 0 243.75 61.499998" height="82" preserveAspectRatio="xMidYMid meet" version="1.0"><defs><g/><clipPath id="427a9a791f"><path d="M 102.210938 8.792969 L 238.671875 8.792969 L 238.671875 52.210938 L 102.210938 52.210938 Z M 102.210938 8.792969 " clip-rule="nonzero"/></clipPath><clipPath id="09c06f78ed"><path d="M 134.390625 8.792969 L 232.203125 8.792969 C 234.335938 8.792969 236.304688 9.9375 237.363281 11.789062 C 238.417969 13.640625 238.398438 15.917969 237.3125 17.753906 L 222.214844 43.25 C 218.925781 48.804688 212.949219 52.210938 206.492188 52.210938 L 108.679688 52.210938 C 106.546875 52.210938 104.578125 51.066406 103.519531 49.214844 C 102.464844 47.363281 102.484375 45.085938 103.570312 43.25 L 118.667969 17.753906 C 121.957031 12.199219 127.933594 8.792969 134.390625 8.792969 Z M 134.390625 8.792969 " clip-rule="nonzero"/></clipPath></defs><g clip-path="url(#427a9a791f)"><g clip-path="url(#09c06f78ed)"><path fill="#894df8" d="M 98.265625 8.792969 L 242.621094 8.792969 L 242.621094 52.210938 L 98.265625 52.210938 Z M 98.265625 8.792969 " fill-opacity="1" fill-rule="nonzero"/></g></g><g fill="#ffffff" fill-opacity="1"><g transform="translate(9.544989, 44.903757)"><g><path d="M 19.234375 0 L 12.46875 -10.046875 L 9.0625 -6.28125 L 9.0625 0 L 2.5625 0 L 2.5625 -25.59375 L 9.0625 -25.59375 L 9.0625 -14.515625 L 18.859375 -25.59375 L 26.390625 -25.59375 L 16.890625 -14.984375 L 27.015625 0 Z M 19.234375 0 "/></g></g></g><g fill="#ffffff" fill-opacity="1"><g transform="translate(34.774498, 44.903757)"><g><path d="M 11.15625 -19.921875 C 14.5625 -19.921875 17.125 -18.875 18.84375 -16.78125 C 20.5625 -14.6875 21.3125 -11.8125 21.09375 -8.15625 L 7.234375 -8.15625 C 7.554688 -6.976562 8.117188 -6.070312 8.921875 -5.4375 C 9.722656 -4.8125 10.707031 -4.5 11.875 -4.5 C 13.6875 -4.5 15.257812 -5.171875 16.59375 -6.515625 L 19.921875 -3.25 C 17.804688 -0.9375 14.941406 0.21875 11.328125 0.21875 C 8.140625 0.21875 5.597656 -0.691406 3.703125 -2.515625 C 1.816406 -4.347656 0.875 -6.773438 0.875 -9.796875 C 0.875 -12.847656 1.816406 -15.296875 3.703125 -17.140625 C 5.597656 -18.992188 8.082031 -19.921875 11.15625 -19.921875 Z M 7.125 -11.546875 L 15.03125 -11.546875 C 15.03125 -12.742188 14.679688 -13.707031 13.984375 -14.4375 C 13.285156 -15.164062 12.363281 -15.53125 11.21875 -15.53125 C 10.144531 -15.53125 9.242188 -15.171875 8.515625 -14.453125 C 7.785156 -13.734375 7.320312 -12.765625 7.125 -11.546875 Z M 7.125 -11.546875 "/></g></g></g><g fill="#ffffff" fill-opacity="1"><g transform="translate(54.702115, 44.903757)"><g><path d="M 13.703125 0 L 7.234375 0 L -0.1875 -19.703125 L 6.328125 -19.703125 L 10.5625 -5.78125 L 14.84375 -19.703125 L 21.140625 -19.703125 Z M 13.703125 0 "/></g></g></g><g fill="#ffffff" fill-opacity="1"><g transform="translate(73.49621, 44.903757)"><g><path d="M 3.296875 -27.765625 C 3.921875 -28.390625 4.722656 -28.703125 5.703125 -28.703125 C 6.679688 -28.703125 7.476562 -28.390625 8.09375 -27.765625 C 8.71875 -27.148438 9.03125 -26.351562 9.03125 -25.375 C 9.03125 -24.394531 8.71875 -23.585938 8.09375 -22.953125 C 7.476562 -22.328125 6.679688 -22.015625 5.703125 -22.015625 C 4.722656 -22.015625 3.921875 -22.328125 3.296875 -22.953125 C 2.679688 -23.585938 2.375 -24.394531 2.375 -25.375 C 2.375 -26.351562 2.679688 -27.148438 3.296875 -27.765625 Z M 8.8125 0 L 2.515625 0 L 2.515625 -19.703125 L 8.8125 -19.703125 Z M 8.8125 0 "/></g></g></g><g fill="#ffffff" fill-opacity="1"><g transform="translate(82.783464, 44.903757)"><g><path d="M 15.421875 -20 C 17.597656 -20 19.34375 -19.3125 20.65625 -17.9375 C 21.96875 -16.5625 22.625 -14.726562 22.625 -12.4375 L 22.625 0 L 16.34375 0 L 16.34375 -10.671875 C 16.34375 -11.816406 16.03125 -12.722656 15.40625 -13.390625 C 14.789062 -14.066406 13.945312 -14.40625 12.875 -14.40625 C 11.75 -14.40625 10.828125 -14.039062 10.109375 -13.3125 C 9.390625 -12.582031 8.96875 -11.617188 8.84375 -10.421875 L 8.84375 0 L 2.515625 0 L 2.515625 -19.703125 L 8.84375 -19.703125 L 8.84375 -16.484375 C 10.238281 -18.773438 12.429688 -19.945312 15.421875 -20 Z M 15.421875 -20 "/></g></g></g><g fill="#ffffff" fill-opacity="1"><g transform="translate(113.780725, 44.903757)"><g><path d="M 22.125 -20.359375 L 14.40625 -20.359375 L 14.40625 0 L 7.890625 0 L 7.890625 -20.359375 L 0.25 -20.359375 L 0.25 -25.625 L 22.125 -25.625 Z M 22.125 -20.359375 "/></g></g></g><g fill="#ffffff" fill-opacity="1"><g transform="translate(134.037422, 44.903757)"><g><path d="M 3.296875 -27.765625 C 3.921875 -28.390625 4.722656 -28.703125 5.703125 -28.703125 C 6.679688 -28.703125 7.476562 -28.390625 8.09375 -27.765625 C 8.71875 -27.148438 9.03125 -26.351562 9.03125 -25.375 C 9.03125 -24.394531 8.71875 -23.585938 8.09375 -22.953125 C 7.476562 -22.328125 6.679688 -22.015625 5.703125 -22.015625 C 4.722656 -22.015625 3.921875 -22.328125 3.296875 -22.953125 C 2.679688 -23.585938 2.375 -24.394531 2.375 -25.375 C 2.375 -26.351562 2.679688 -27.148438 3.296875 -27.765625 Z M 8.8125 0 L 2.515625 0 L 2.515625 -19.703125 L 8.8125 -19.703125 Z M 8.8125 0 "/></g></g></g><g fill="#ffffff" fill-opacity="1"><g transform="translate(143.324677, 44.903757)"><g><path d="M 14 -5.453125 L 15.25 -1.0625 C 13.707031 -0.15625 11.953125 0.296875 9.984375 0.296875 C 8.035156 0.296875 6.457031 -0.242188 5.25 -1.328125 C 4.039062 -2.421875 3.4375 -3.960938 3.4375 -5.953125 L 3.4375 -14.65625 L 0.6875 -14.65625 L 0.6875 -18.796875 L 3.4375 -18.796875 L 3.4375 -24.28125 L 9.71875 -24.28125 L 9.71875 -18.828125 L 14.875 -18.828125 L 14.875 -14.65625 L 9.71875 -14.65625 L 9.71875 -6.953125 C 9.71875 -6.191406 9.867188 -5.632812 10.171875 -5.28125 C 10.484375 -4.925781 10.941406 -4.765625 11.546875 -4.796875 C 12.140625 -4.796875 12.957031 -5.015625 14 -5.453125 Z M 14 -5.453125 "/></g></g></g><g fill="#ffffff" fill-opacity="1"><g transform="translate(157.145966, 44.903757)"><g><path d="M 21.71875 -19.703125 L 21.71875 0 L 15.390625 0 L 15.390625 -3.25 C 14.046875 -0.914062 11.914062 0.25 9 0.25 C 6.851562 0.25 5.140625 -0.429688 3.859375 -1.796875 C 2.578125 -3.160156 1.9375 -4.988281 1.9375 -7.28125 L 1.9375 -19.703125 L 8.265625 -19.703125 L 8.265625 -9.0625 C 8.265625 -7.894531 8.5625 -6.972656 9.15625 -6.296875 C 9.75 -5.628906 10.546875 -5.296875 11.546875 -5.296875 C 12.742188 -5.328125 13.679688 -5.773438 14.359375 -6.640625 C 15.046875 -7.503906 15.390625 -8.617188 15.390625 -9.984375 L 15.390625 -19.703125 Z M 21.71875 -19.703125 "/></g></g></g><g fill="#ffffff" fill-opacity="1"><g transform="translate(179.304035, 44.903757)"><g><path d="M 9.578125 -20 C 12.484375 -20 15.191406 -19.253906 17.703125 -17.765625 L 15.53125 -13.671875 C 13.09375 -14.992188 11.023438 -15.65625 9.328125 -15.65625 C 8.035156 -15.65625 7.390625 -15.203125 7.390625 -14.296875 C 7.390625 -13.804688 7.738281 -13.394531 8.4375 -13.0625 C 9.144531 -12.738281 10.007812 -12.441406 11.03125 -12.171875 C 12.0625 -11.898438 13.082031 -11.5625 14.09375 -11.15625 C 15.101562 -10.757812 15.960938 -10.125 16.671875 -9.25 C 17.378906 -8.375 17.734375 -7.300781 17.734375 -6.03125 C 17.734375 -4.0625 16.960938 -2.519531 15.421875 -1.40625 C 13.890625 -0.300781 11.894531 0.25 9.4375 0.25 C 5.945312 0.25 2.992188 -0.671875 0.578125 -2.515625 L 2.59375 -6.546875 C 4.90625 -4.910156 7.234375 -4.09375 9.578125 -4.09375 C 11.015625 -4.09375 11.734375 -4.546875 11.734375 -5.453125 C 11.734375 -5.960938 11.382812 -6.382812 10.6875 -6.71875 C 10 -7.0625 9.15625 -7.367188 8.15625 -7.640625 C 7.15625 -7.910156 6.15625 -8.242188 5.15625 -8.640625 C 4.15625 -9.046875 3.304688 -9.675781 2.609375 -10.53125 C 1.921875 -11.382812 1.578125 -12.457031 1.578125 -13.75 C 1.578125 -15.71875 2.316406 -17.25 3.796875 -18.34375 C 5.285156 -19.445312 7.210938 -20 9.578125 -20 Z M 9.578125 -20 "/></g></g></g><g fill="#ffffff" fill-opacity="1"><g transform="translate(195.977379, 44.903757)"><g><path d="M 2.234375 -4.96875 C 2.796875 -5.53125 3.523438 -5.8125 4.421875 -5.8125 C 5.328125 -5.8125 6.066406 -5.53125 6.640625 -4.96875 C 7.210938 -4.40625 7.5 -3.671875 7.5 -2.765625 C 7.5 -1.867188 7.210938 -1.132812 6.640625 -0.5625 C 6.066406 0.0078125 5.328125 0.296875 4.421875 0.296875 C 3.523438 0.296875 2.796875 0.0078125 2.234375 -0.5625 C 1.671875 -1.132812 1.390625 -1.867188 1.390625 -2.765625 C 1.390625 -3.671875 1.671875 -4.40625 2.234375 -4.96875 Z M 2.234375 -4.96875 "/></g></g></g></svg>